<?xml version="1.0" encoding="UTF-8" standalone="no"?>
<!-- Created with Inkscape (http://www.inkscape.org/) -->

<svg
   width="54.342999"
   height="51.944"
   viewBox="0 0 14.378251 13.743517"
   version="1.1"
   id="svg1"
   xmlns="http://www.w3.org/2000/svg"
   xmlns:svg="http://www.w3.org/2000/svg">
  <defs
     id="defs1">
    <clipPath
       clipPathUnits="userSpaceOnUse"
       id="clipPath192">
      <path
         d="M 0,5527.495 H 1920 V 0 H 0 Z"
         transform="translate(-81.9541,-5301.1681)"
         id="path192" />
    </clipPath>
  </defs>
  <g
     id="layer1">
    <path
       id="path191"
       d="m 0,0 4.829,-9.564 c 0.291,-0.576 0.842,-0.977 1.48,-1.075 l 10.588,-1.637 c 1.621,-0.251 2.268,-2.24 1.103,-3.396 l -7.603,-7.548 c -0.459,-0.455 -0.669,-1.103 -0.566,-1.739 l 1.715,-10.576 c 0.263,-1.62 -1.429,-2.849 -2.889,-2.099 l -9.528,4.899 c -0.574,0.295 -1.255,0.295 -1.829,0 l -9.528,-4.899 c -1.459,-0.75 -3.151,0.479 -2.889,2.099 l 1.715,10.576 c 0.103,0.636 -0.107,1.284 -0.565,1.739 l -7.604,7.548 c -1.164,1.156 -0.518,3.145 1.104,3.396 l 10.588,1.637 c 0.637,0.098 1.189,0.499 1.479,1.075 L -3.571,0 C -2.831,1.465 -0.74,1.465 0,0"
       style="fill:#ffffff icc-color(Display, 1, 1, 1);fill-opacity:1;fill-rule:nonzero;stroke:none"
       transform="matrix(0.35277776,0,0,-0.35277776,7.8655536,0.41877753)"
       clip-path="url(#clipPath192)" />
  </g>
</svg>
