<?xml version="1.0" encoding="UTF-8" standalone="no"?>
<!-- Created with Inkscape (http://www.inkscape.org/) -->

<svg
   width="7.6240001mm"
   height="6.289mm"
   viewBox="0 0 7.6240001 6.289"
   version="1.1"
   id="svg1"
   xmlns="http://www.w3.org/2000/svg"
   xmlns:svg="http://www.w3.org/2000/svg">
  <defs
     id="defs1">
    <clipPath
       clipPathUnits="userSpaceOnUse"
       id="clipPath126">
      <path
         d="M 0,5527.495 H 1920 V 0 H 0 Z"
         transform="translate(-1730.8545,-5274.4327)"
         id="path126" />
    </clipPath>
  </defs>
  <g
     id="layer1">
    <path
       id="path125"
       d="m 0,0 c 0,0 -0.028,-0.043 -0.049,-0.093 l -0.016,0.01 -0.367,-3.901 -2.041,5.648 C -0.239,3.075 8.295,8.452 8.829,8.648 8.921,8.676 8.989,8.644 8.971,8.582 8.738,7.767 0,0 0,0 m 13.087,11.375 c -0.077,0.226 -0.17,0.288 -0.314,0.342 -0.316,0.119 -0.851,-0.06 -0.851,-0.06 0,0 -18.936,-6.806 -20.017,-7.56 C -8.329,3.935 -8.406,3.841 -8.444,3.729 -8.632,3.193 -8.05,2.957 -8.05,2.957 l 4.881,-1.591 c 0,0 0.019,-0.002 0.044,-0.004 l 2.286,-6.329 c 0,0 0.209,-0.427 0.463,-0.567 0.006,-0.005 0.013,-0.008 0.019,-0.012 0.009,-0.005 0.018,-0.009 0.027,-0.012 0.027,-0.013 0.058,-0.02 0.093,-0.021 0.004,-0.001 0.008,-0.003 0.012,-0.003 0.001,0 0.003,0.002 0.004,0.002 0.191,-0.001 0.497,0.16 0.992,0.655 1.052,1.051 2.061,1.924 2.566,2.348 1.678,-1.159 3.484,-2.441 4.263,-3.11 0.392,-0.337 0.72,-0.392 0.989,-0.382 0.74,0.027 0.946,0.84 0.946,0.84 0,0 3.451,13.888 3.567,15.749 0.01,0.183 0.026,0.298 0.027,0.424 0.003,0.174 -0.013,0.348 -0.042,0.431"
       style="fill:#000000 icc-color(Display, 0, 0, 0);fill-opacity:1;fill-rule:nonzero;stroke:none"
       transform="matrix(0.35277776,0,0,-0.35277776,2.9985061,4.1559414)"
       clip-path="url(#clipPath126)" />
  </g>
</svg>
