<?xml version="1.0" encoding="UTF-8" standalone="no"?>
<!-- Created with Inkscape (http://www.inkscape.org/) -->

<svg
   width="8.9890003mm"
   height="9.0299997mm"
   viewBox="0 0 8.9890003 9.0299997"
   version="1.1"
   id="svg1"
   xmlns="http://www.w3.org/2000/svg"
   xmlns:svg="http://www.w3.org/2000/svg">
  <defs
     id="defs1">
    <clipPath
       clipPathUnits="userSpaceOnUse"
       id="clipPath110">
      <path
         d="M 0,5527.495 H 1920 V 0 H 0 Z"
         transform="translate(-1687.5865,-5275.2511)"
         id="path110" />
    </clipPath>
  </defs>
  <g
     id="layer1">
    <path
       id="path109"
       d="m 0,0 c -0.317,0.159 -1.876,0.926 -2.167,1.031 -0.29,0.106 -0.501,0.159 -0.712,-0.158 -0.212,-0.317 -0.819,-1.031 -1.004,-1.244 -0.186,-0.211 -0.37,-0.237 -0.687,-0.078 -0.317,0.158 -1.339,0.493 -2.55,1.572 -0.942,0.841 -1.578,1.879 -1.763,2.196 -0.186,0.317 -0.02,0.489 0.139,0.647 0.143,0.142 0.317,0.37 0.476,0.555 0.158,0.186 0.211,0.317 0.316,0.529 0.106,0.212 0.053,0.396 -0.026,0.555 -0.079,0.158 -0.713,1.719 -0.977,2.353 -0.258,0.618 -0.519,0.535 -0.714,0.544 -0.184,0.01 -0.396,0.012 -0.608,0.012 -0.211,0 -0.554,-0.08 -0.845,-0.397 -0.29,-0.318 -1.11,-1.084 -1.11,-2.644 0,-1.56 1.136,-3.067 1.295,-3.279 0.159,-0.211 2.235,-3.412 5.416,-4.784 0.756,-0.328 1.346,-0.522 1.807,-0.669 0.76,-0.241 1.45,-0.207 1.997,-0.125 0.609,0.091 1.875,0.766 2.139,1.508 0.265,0.739 0.265,1.374 0.186,1.505 C 0.528,-0.238 0.317,-0.158 0,0 m -5.785,-7.896 h -0.004 c -1.892,0.001 -3.748,0.509 -5.367,1.47 l -0.385,0.228 -3.991,-1.046 1.065,3.89 -0.251,0.399 c -1.055,1.679 -1.612,3.618 -1.612,5.61 0.002,5.813 4.733,10.542 10.55,10.542 2.817,-10e-4 5.464,-1.099 7.455,-3.092 C 3.666,8.112 4.762,5.464 4.761,2.647 4.759,-3.167 0.028,-7.896 -5.785,-7.896 m 8.976,19.515 c -2.396,2.398 -5.582,3.719 -8.976,3.72 -6.993,0 -12.685,-5.69 -12.687,-12.683 -10e-4,-2.235 0.583,-4.417 1.694,-6.341 l -1.8,-6.573 6.726,1.764 c 1.853,-1.01 3.938,-1.543 6.062,-1.544 h 0.005 c 6.993,0 12.685,5.69 12.688,12.684 0.002,3.389 -1.317,6.576 -3.712,8.973"
       style="fill:#000000 icc-color(Display, 0, 0, 0);fill-opacity:1;fill-rule:evenodd;stroke:none"
       transform="matrix(0.35277776,0,0,-0.35277776,6.5382426,5.4229626)"
       clip-path="url(#clipPath110)" />
  </g>
</svg>
